<svg xmlns="http://www.w3.org/2000/svg"  xmlns:xlink="http://www.w3.org/1999/xlink" xmlns:svgjs="http://svgjs.dev/svgjs" width="1440" height="800" preserveAspectRatio="none" viewBox="0 0 1440 800"><g mask="url(&quot;#SvgjsMask1026&quot;)" fill="none"><rect width="1440" height="800" x="0" y="0" fill="rgba(15, 23, 42, 1)"></rect><path d="M440.43 948.99C611.19 916.15 689.89 484.52 956.28 482.38 1222.67 480.24 1333.86 678.92 1472.13 682.38" stroke="rgba(18, 28, 52, 1)" stroke-width="2"></path><path d="M813.15 951.78C920.1 910.2 814.53 637.84 1088.59 584.6 1362.65 531.36 1472.6 218.92 1639.48 200.6" stroke="rgba(18, 28, 52, 1)" stroke-width="2"></path><path d="M511.37 801C668.85 775.92 693.49 439.42 1003.26 394.9 1313.03 350.38 1342.83 46.5 1495.15 26.9" stroke="rgba(18, 28, 52, 1)" stroke-width="2"></path><path d="M572.28 926.25C744.38 895.29 787.02 493.89 1098.57 465.54 1410.12 437.19 1482.7 253.69 1624.86 249.54" stroke="rgba(18, 28, 52, 1)" stroke-width="2"></path><path d="M563.84 860.4C744.05 802.95 796.77 285.6 1051.9 282.3 1307.04 279 1399.64 552.59 1539.97 562.3" stroke="rgba(18, 28, 52, 1)" stroke-width="2"></path></g><defs><mask id="SvgjsMask1026"><rect width="1440" height="800" fill="#ffffff"></rect></mask></defs></svg>