<svg xmlns="http://www.w3.org/2000/svg" version="1.1" viewBox="0.00 0.00 217.00 150.00">
<path fill="#f44f29" d="
  M 93.52 106.94
  L 110.58 4.59
  A 0.60 0.60 0.0 0 1 111.16 4.09
  L 126.77 3.81
  A 0.60 0.60 0.0 0 1 127.37 4.51
  L 110.28 106.94
  A 0.60 0.60 0.0 0 1 109.70 107.44
  L 94.12 107.64
  A 0.60 0.60 0.0 0 1 93.52 106.94
  Z"
/>
<path fill="#f44f29" d="
  M 161.57 55.90
  Q 161.33 55.05 160.48 54.53
  Q 149.60 47.82 138.28 40.81
  A 2.71 2.69 -74.2 0 1 137.00 38.51
  L 137.00 21.02
  Q 137.00 20.45 137.48 20.75
  L 178.68 46.53
  Q 179.49 47.03 179.49 47.99
  L 179.50 62.69
  A 3.62 3.61 74.0 0 1 177.81 65.75
  L 137.49 91.00
  A 0.32 0.32 0.0 0 1 137.00 90.73
  L 137.00 72.48
  A 1.16 1.16 0.0 0 1 137.54 71.50
  L 161.38 56.39
  A 0.45 0.43 -24.7 0 0 161.57 55.90
  Z"
/>
<path fill="#f44f29" d="
  M 59.61 56.57
  C 67.00 61.88 75.03 66.41 82.64 71.11
  A 2.87 2.87 0.0 0 1 84.00 73.55
  L 84.00 90.99
  A 0.31 0.31 0.0 0 1 83.52 91.25
  L 42.42 65.46
  A 2.49 2.49 0.0 0 1 41.25 63.35
  L 41.25 48.48
  A 2.66 2.65 74.0 0 1 42.49 46.23
  L 83.25 20.79
  Q 83.86 20.41 83.91 21.13
  Q 84.43 29.47 83.91 37.59
  C 83.81 39.14 82.96 40.77 81.75 41.50
  Q 71.07 47.95 59.67 54.99
  Q 58.45 55.74 59.61 56.57
  Z"
/>
<path fill="#f44f29" d="
  M 14.52 139.93
  C 7.12 129.76 8.85 118.48 19.50 111.95
  C 22.41 110.17 27.34 109.52 31.28 109.51
  Q 112.02 109.48 192.75 109.51
  Q 200.56 109.52 206.22 114.77
  C 208.06 116.48 209.26 119.27 211.34 121.34
  Q 211.67 121.66 211.76 122.12
  C 213.74 132.89 209.03 142.63 198.24 145.83
  Q 195.01 146.79 187.17 146.76
  Q 96.57 146.41 29.88 146.60
  Q 21.25 146.62 14.70 141.51
  Q 14.43 141.31 14.54 141.00
  L 14.64 140.71
  Q 14.78 140.29 14.52 139.93
  Z
  M 35.63 129.12
  Q 35.58 130.59 34.80 129.35
  Q 32.56 125.80 30.21 121.80
  Q 28.01 118.06 24.11 119.71
  A 0.91 0.91 0.0 0 0 23.56 120.56
  L 23.62 134.09
  A 1.41 1.40 -6.6 0 0 25.34 135.45
  L 25.73 135.36
  Q 27.50 134.95 27.50 133.14
  L 27.50 125.24
  Q 27.50 123.54 28.39 124.99
  C 29.96 127.53 35.49 138.87 39.69 134.72
  Q 40.01 134.40 40.00 133.95
  L 39.99 120.56
  A 1.19 1.19 0.0 0 0 38.81 119.37
  L 37.17 119.37
  Q 35.95 119.36 35.91 120.58
  L 35.63 129.12
  Z
  M 55.98 132.18
  Q 56.65 133.18 57.36 134.13
  Q 59.07 136.43 60.61 134.71
  A 1.57 1.55 54.6 0 0 60.88 133.07
  Q 58.42 127.35 56.50 122.24
  Q 54.70 117.44 49.48 119.98
  Q 49.00 120.22 48.81 120.72
  L 43.81 133.67
  Q 43.35 134.85 44.58 135.19
  L 45.16 135.34
  Q 46.50 135.70 47.24 134.53
  L 48.77 132.12
  Q 49.09 131.62 49.69 131.63
  L 55.20 131.75
  Q 55.70 131.76 55.98 132.18
  Z
  M 78.84 125.08
  C 80.39 122.72 77.58 120.04 75.50 119.73
  Q 70.35 118.97 65.32 119.58
  A 0.66 0.65 86.5 0 0 64.75 120.23
  L 64.75 134.48
  Q 64.75 134.92 65.19 135.00
  C 69.17 135.70 80.40 136.50 80.12 130.75
  C 80.04 129.08 78.66 128.03 78.58 125.99
  Q 78.56 125.50 78.84 125.08
  Z
  M 88.4791 121.1365
  A 1.81 1.81 0.0 0 0 86.6660 119.3297
  L 86.2860 119.3303
  A 1.81 1.81 0.0 0 0 84.4791 121.1435
  L 84.5009 133.5835
  A 1.81 1.81 0.0 0 0 86.3140 135.3903
  L 86.6940 135.3897
  A 1.81 1.81 0.0 0 0 88.5009 133.5765
  L 88.4791 121.1365
  Z
  M 132.15 132.07
  L 133.32 134.60
  A 1.60 1.60 0.0 0 0 134.99 135.51
  L 136.32 135.33
  Q 137.69 135.14 137.16 133.86
  L 131.63 120.41
  Q 131.38 119.81 130.75 119.64
  Q 128.41 119.02 125.96 119.60
  A 1.13 1.13 0.0 0 0 125.15 120.29
  L 119.99 133.25
  Q 119.36 134.84 121.02 135.28
  L 121.76 135.47
  Q 123.92 136.04 123.98 133.81
  C 124.07 130.93 129.37 131.66 131.40 131.60
  Q 131.93 131.59 132.15 132.07
  Z
  M 145.50 133.03
  A 0.77 0.77 0.0 0 1 144.76 132.26
  L 144.75 121.29
  A 1.96 1.96 0.0 0 0 142.53 119.35
  L 141.97 119.42
  A 1.61 1.60 -3.9 0 0 140.58 121.01
  L 140.57 133.60
  A 1.90 1.90 0.0 0 0 142.48 135.50
  L 152.63 135.50
  A 1.34 1.33 4.3 0 0 153.95 134.37
  L 154.01 133.95
  A 0.59 0.58 -85.1 0 0 153.45 133.28
  L 145.50 133.03
  Z
  M 188.98 121.24
  C 190.65 120.46 194.38 122.19 196.35 122.73
  A 0.52 0.52 0.0 0 0 196.99 122.11
  L 196.89 121.68
  Q 196.65 120.63 195.66 120.19
  C 192.55 118.84 190.14 119.65 186.86 119.89
  A 1.37 1.34 22.5 0 0 186.07 120.21
  L 183.79 122.19
  Q 183.48 122.45 183.51 122.85
  L 183.70 125.65
  Q 183.73 126.05 184.07 126.27
  C 187.17 128.19 191.22 128.76 193.78 131.22
  A 0.89 0.88 54.0 0 1 193.56 132.65
  C 190.37 134.22 187.60 132.80 184.55 131.84
  A 0.96 0.95 16.3 0 0 183.34 132.50
  L 183.26 132.79
  Q 182.94 134.00 184.11 134.43
  Q 188.75 136.17 193.97 135.28
  C 197.28 134.71 199.70 131.72 197.54 128.57
  C 196.27 126.73 190.95 124.85 189.16 124.25
  Q 185.30 122.97 188.98 121.24
  Z
  M 97.54 131.58
  L 97.41 121.08
  Q 97.39 119.53 95.83 119.50
  L 95.01 119.49
  Q 93.53 119.47 93.52 120.95
  Q 93.50 126.89 93.32 132.75
  Q 93.24 135.26 95.74 135.43
  Q 101.30 135.81 105.66 135.16
  Q 106.16 135.09 106.45 134.83
  Q 106.93 134.40 106.86 133.86
  A 0.66 0.65 87.9 0 0 106.25 133.29
  L 98.82 132.92
  A 1.35 1.35 0.0 0 1 97.54 131.58
  Z
  M 161.90 132.47
  L 161.89 121.11
  Q 161.89 119.45 160.23 119.48
  L 159.25 119.50
  Q 157.78 119.53 157.77 121.00
  L 157.74 133.83
  Q 157.73 135.55 159.46 135.51
  L 169.44 135.27
  Q 170.26 135.25 170.66 134.52
  L 170.95 134.02
  A 0.52 0.51 -75.1 0 0 170.51 133.26
  L 162.47 133.06
  A 0.59 0.59 0.0 0 1 161.90 132.47
  Z
  M 178.6391 121.1866
  A 1.68 1.68 0.0 0 0 176.9561 119.5095
  L 176.4161 119.5105
  A 1.68 1.68 0.0 0 0 174.7391 121.1934
  L 174.7609 133.7134
  A 1.68 1.68 0.0 0 0 176.4439 135.3905
  L 176.9839 135.3895
  A 1.68 1.68 0.0 0 0 178.6609 133.7066
  L 178.6391 121.1866
  Z"
/>
<path fill="#f44f29" d="
  M 68.64 122.45
  A 1.08 1.08 0.0 0 1 69.72 121.37
  L 72.52 121.37
  A 2.72 2.18 -0.0 0 1 75.24 123.55
  L 75.24 123.91
  A 2.72 2.18 0.0 0 1 72.52 126.09
  L 69.72 126.09
  A 1.08 1.08 0.0 0 1 68.64 125.01
  L 68.64 122.45
  Z"
/>
<path fill="#f44f29" d="
  M 49.93 128.68
  L 51.81 123.54
  A 0.65 0.65 0.0 0 1 53.05 123.58
  L 54.66 128.81
  A 0.65 0.65 0.0 0 1 54.02 129.65
  L 50.52 129.56
  A 0.65 0.65 0.0 0 1 49.93 128.68
  Z"
/>
<path fill="#f44f29" d="
  M 128.98 123.86
  L 130.61 128.45
  A 0.72 0.72 0.0 0 1 129.96 129.41
  L 126.77 129.54
  A 0.72 0.72 0.0 0 1 126.06 128.59
  L 127.62 123.88
  A 0.72 0.72 0.0 0 1 128.98 123.86
  Z"
/>
<path fill="#f44f29" d="
  M 68.66 129.33
  A 1.18 1.18 0.0 0 1 69.84 128.14
  L 72.23 128.14
  A 3.75 2.43 -0.1 0 1 75.98 130.56
  L 75.98 130.92
  A 3.75 2.43 -0.1 0 1 72.23 133.36
  L 69.84 133.36
  A 1.18 1.18 0.0 0 1 68.66 132.19
  L 68.66 129.33
  Z"
/>
</svg>
